<svg width="161" height="147" viewBox="0 0 161 147" fill="none" xmlns="http://www.w3.org/2000/svg">
<path d="M4.37157 144.465C4.37157 143.257 3.39296 142.279 2.18579 142.279C0.978609 142.279 0 143.257 0 144.465C0 145.672 0.978609 146.65 2.18579 146.65C3.39296 146.65 4.37157 145.672 4.37157 144.465Z" fill="#C1C1C1"/>
<path d="M4.37157 63.1101C4.37157 61.9029 3.39296 60.9243 2.18579 60.9243C0.978609 60.9243 0 61.9029 0 63.1101C0 64.3173 0.978609 65.2959 2.18579 65.2959C3.39296 65.2959 4.37157 64.3173 4.37157 63.1101Z" fill="#C1C1C1"/>
<path d="M4.37157 103.787C4.37157 102.58 3.39296 101.601 2.18579 101.601C0.978609 101.601 0 102.58 0 103.787C0 104.994 0.978609 105.973 2.18579 105.973C3.39296 105.973 4.37157 104.994 4.37157 103.787Z" fill="#C1C1C1"/>
<path d="M4.37157 24.4822C4.37157 23.275 3.39296 22.2964 2.18579 22.2964C0.978609 22.2964 0 23.275 0 24.4822C0 25.6894 0.978609 26.668 2.18579 26.668C3.39296 26.668 4.37157 25.6894 4.37157 24.4822Z" fill="#C1C1C1"/>
<path d="M4.37157 122.168C4.37157 120.961 3.39296 119.982 2.18579 119.982C0.978609 119.982 0 120.961 0 122.168C0 123.375 0.978609 124.354 2.18579 124.354C3.39296 124.354 4.37157 123.375 4.37157 122.168Z" fill="#C1C1C1"/>
<path d="M4.37157 42.863C4.37157 41.6559 3.39296 40.6773 2.18579 40.6773C0.978609 40.6773 0 41.6559 0 42.863C0 44.0702 0.978609 45.0488 2.18579 45.0488C3.39296 45.0488 4.37157 44.0702 4.37157 42.863Z" fill="#C1C1C1"/>
<path d="M4.37157 83.5408C4.37157 82.3336 3.39296 81.355 2.18579 81.355C0.978609 81.355 0 82.3336 0 83.5408C0 84.748 0.978609 85.7266 2.18579 85.7266C3.39296 85.7266 4.37157 84.748 4.37157 83.5408Z" fill="#C1C1C1"/>
<path d="M4.37157 2.18531C4.37157 0.978133 3.39296 -0.00047636 2.18579 -0.00047636C0.978609 -0.00047636 0 0.978133 0 2.18531C0 3.39248 0.978609 4.37109 2.18579 4.37109C3.39296 4.37109 4.37157 3.39248 4.37157 2.18531Z" fill="#C1C1C1"/>
<path d="M21.7768 144.465C21.7768 143.257 20.7982 142.279 19.5911 142.279C18.3839 142.279 17.4053 143.257 17.4053 144.465C17.4053 145.672 18.3839 146.65 19.5911 146.65C20.7982 146.65 21.7768 145.672 21.7768 144.465Z" fill="#C1C1C1"/>
<path d="M21.7768 63.1101C21.7768 61.9029 20.7982 60.9243 19.5911 60.9243C18.3839 60.9243 17.4053 61.9029 17.4053 63.1101C17.4053 64.3173 18.3839 65.2959 19.5911 65.2959C20.7982 65.2959 21.7768 64.3173 21.7768 63.1101Z" fill="#C1C1C1"/>
<path d="M21.7768 103.787C21.7768 102.58 20.7982 101.601 19.5911 101.601C18.3839 101.601 17.4053 102.58 17.4053 103.787C17.4053 104.994 18.3839 105.973 19.5911 105.973C20.7982 105.973 21.7768 104.994 21.7768 103.787Z" fill="#C1C1C1"/>
<path d="M21.7768 24.4822C21.7768 23.275 20.7982 22.2964 19.5911 22.2964C18.3839 22.2964 17.4053 23.275 17.4053 24.4822C17.4053 25.6894 18.3839 26.668 19.5911 26.668C20.7982 26.668 21.7768 25.6894 21.7768 24.4822Z" fill="#C1C1C1"/>
<path d="M21.7768 122.168C21.7768 120.961 20.7982 119.982 19.5911 119.982C18.3839 119.982 17.4053 120.961 17.4053 122.168C17.4053 123.375 18.3839 124.354 19.5911 124.354C20.7982 124.354 21.7768 123.375 21.7768 122.168Z" fill="#C1C1C1"/>
<path d="M21.7768 42.863C21.7768 41.6559 20.7982 40.6773 19.5911 40.6773C18.3839 40.6773 17.4053 41.6559 17.4053 42.863C17.4053 44.0702 18.3839 45.0488 19.5911 45.0488C20.7982 45.0488 21.7768 44.0702 21.7768 42.863Z" fill="#C1C1C1"/>
<path d="M21.7768 83.5408C21.7768 82.3336 20.7982 81.355 19.5911 81.355C18.3839 81.355 17.4053 82.3336 17.4053 83.5408C17.4053 84.748 18.3839 85.7266 19.5911 85.7266C20.7982 85.7266 21.7768 84.748 21.7768 83.5408Z" fill="#C1C1C1"/>
<path d="M21.7768 2.18531C21.7768 0.978133 20.7982 -0.00047636 19.5911 -0.00047636C18.3839 -0.00047636 17.4053 0.978133 17.4053 2.18531C17.4053 3.39248 18.3839 4.37109 19.5911 4.37109C20.7982 4.37109 21.7768 3.39248 21.7768 2.18531Z" fill="#C1C1C1"/>
<path d="M39.1868 144.465C39.1868 143.257 38.2081 142.279 37.001 142.279C35.7938 142.279 34.8152 143.257 34.8152 144.465C34.8152 145.672 35.7938 146.65 37.001 146.65C38.2081 146.65 39.1868 145.672 39.1868 144.465Z" fill="#C1C1C1"/>
<path d="M39.1868 63.1101C39.1868 61.9029 38.2081 60.9243 37.001 60.9243C35.7938 60.9243 34.8152 61.9029 34.8152 63.1101C34.8152 64.3173 35.7938 65.2959 37.001 65.2959C38.2081 65.2959 39.1868 64.3173 39.1868 63.1101Z" fill="#C1C1C1"/>
<path d="M39.1868 103.787C39.1868 102.58 38.2081 101.601 37.001 101.601C35.7938 101.601 34.8152 102.58 34.8152 103.787C34.8152 104.994 35.7938 105.973 37.001 105.973C38.2081 105.973 39.1868 104.994 39.1868 103.787Z" fill="#C1C1C1"/>
<path d="M39.1868 24.4822C39.1868 23.275 38.2081 22.2964 37.001 22.2964C35.7938 22.2964 34.8152 23.275 34.8152 24.4822C34.8152 25.6894 35.7938 26.668 37.001 26.668C38.2081 26.668 39.1868 25.6894 39.1868 24.4822Z" fill="#C1C1C1"/>
<path d="M39.1868 122.168C39.1868 120.961 38.2081 119.982 37.001 119.982C35.7938 119.982 34.8152 120.961 34.8152 122.168C34.8152 123.375 35.7938 124.354 37.001 124.354C38.2081 124.354 39.1868 123.375 39.1868 122.168Z" fill="#C1C1C1"/>
<path d="M39.1868 42.863C39.1868 41.6559 38.2081 40.6773 37.001 40.6773C35.7938 40.6773 34.8152 41.6559 34.8152 42.863C34.8152 44.0702 35.7938 45.0488 37.001 45.0488C38.2081 45.0488 39.1868 44.0702 39.1868 42.863Z" fill="#C1C1C1"/>
<path d="M39.1868 83.5408C39.1868 82.3336 38.2081 81.355 37.001 81.355C35.7938 81.355 34.8152 82.3336 34.8152 83.5408C34.8152 84.748 35.7938 85.7266 37.001 85.7266C38.2081 85.7266 39.1868 84.748 39.1868 83.5408Z" fill="#C1C1C1"/>
<path d="M39.1868 2.18531C39.1868 0.978133 38.2081 -0.00047636 37.001 -0.00047636C35.7938 -0.00047636 34.8152 0.978133 34.8152 2.18531C34.8152 3.39248 35.7938 4.37109 37.001 4.37109C38.2081 4.37109 39.1868 3.39248 39.1868 2.18531Z" fill="#C1C1C1"/>
<path d="M56.592 144.465C56.592 143.257 55.6134 142.279 54.4062 142.279C53.1991 142.279 52.2205 143.257 52.2205 144.465C52.2205 145.672 53.1991 146.65 54.4062 146.65C55.6134 146.65 56.592 145.672 56.592 144.465Z" fill="#C1C1C1"/>
<path d="M56.592 63.1101C56.592 61.9029 55.6134 60.9243 54.4062 60.9243C53.1991 60.9243 52.2205 61.9029 52.2205 63.1101C52.2205 64.3173 53.1991 65.2959 54.4062 65.2959C55.6134 65.2959 56.592 64.3173 56.592 63.1101Z" fill="#C1C1C1"/>
<path d="M56.592 103.787C56.592 102.58 55.6134 101.601 54.4062 101.601C53.1991 101.601 52.2205 102.58 52.2205 103.787C52.2205 104.994 53.1991 105.973 54.4062 105.973C55.6134 105.973 56.592 104.994 56.592 103.787Z" fill="#C1C1C1"/>
<path d="M56.592 24.4822C56.592 23.275 55.6134 22.2964 54.4062 22.2964C53.1991 22.2964 52.2205 23.275 52.2205 24.4822C52.2205 25.6894 53.1991 26.668 54.4062 26.668C55.6134 26.668 56.592 25.6894 56.592 24.4822Z" fill="#C1C1C1"/>
<path d="M56.592 122.168C56.592 120.961 55.6134 119.982 54.4062 119.982C53.1991 119.982 52.2205 120.961 52.2205 122.168C52.2205 123.375 53.1991 124.354 54.4062 124.354C55.6134 124.354 56.592 123.375 56.592 122.168Z" fill="#C1C1C1"/>
<path d="M56.592 42.863C56.592 41.6559 55.6134 40.6773 54.4062 40.6773C53.1991 40.6773 52.2205 41.6559 52.2205 42.863C52.2205 44.0702 53.1991 45.0488 54.4062 45.0488C55.6134 45.0488 56.592 44.0702 56.592 42.863Z" fill="#C1C1C1"/>
<path d="M56.592 83.5408C56.592 82.3336 55.6134 81.355 54.4062 81.355C53.1991 81.355 52.2205 82.3336 52.2205 83.5408C52.2205 84.748 53.1991 85.7266 54.4062 85.7266C55.6134 85.7266 56.592 84.748 56.592 83.5408Z" fill="#C1C1C1"/>
<path d="M56.592 2.18531C56.592 0.978133 55.6134 -0.00047636 54.4062 -0.00047636C53.1991 -0.00047636 52.2205 0.978133 52.2205 2.18531C52.2205 3.39248 53.1991 4.37109 54.4062 4.37109C55.6134 4.37109 56.592 3.39248 56.592 2.18531Z" fill="#C1C1C1"/>
<path d="M74.0004 144.465C74.0004 143.257 73.0217 142.279 71.8146 142.279C70.6074 142.279 69.6288 143.257 69.6288 144.465C69.6288 145.672 70.6074 146.65 71.8146 146.65C73.0217 146.65 74.0004 145.672 74.0004 144.465Z" fill="#C1C1C1"/>
<path d="M74.0004 63.1101C74.0004 61.9029 73.0217 60.9243 71.8146 60.9243C70.6074 60.9243 69.6288 61.9029 69.6288 63.1101C69.6288 64.3173 70.6074 65.2959 71.8146 65.2959C73.0217 65.2959 74.0004 64.3173 74.0004 63.1101Z" fill="#C1C1C1"/>
<path d="M74.0004 103.787C74.0004 102.58 73.0217 101.601 71.8146 101.601C70.6074 101.601 69.6288 102.58 69.6288 103.787C69.6288 104.994 70.6074 105.973 71.8146 105.973C73.0217 105.973 74.0004 104.994 74.0004 103.787Z" fill="#C1C1C1"/>
<path d="M74.0004 24.4822C74.0004 23.275 73.0217 22.2964 71.8146 22.2964C70.6074 22.2964 69.6288 23.275 69.6288 24.4822C69.6288 25.6894 70.6074 26.668 71.8146 26.668C73.0217 26.668 74.0004 25.6894 74.0004 24.4822Z" fill="#C1C1C1"/>
<path d="M74.0004 122.168C74.0004 120.961 73.0217 119.982 71.8146 119.982C70.6074 119.982 69.6288 120.961 69.6288 122.168C69.6288 123.375 70.6074 124.354 71.8146 124.354C73.0217 124.354 74.0004 123.375 74.0004 122.168Z" fill="#C1C1C1"/>
<path d="M74.0004 42.863C74.0004 41.6559 73.0217 40.6773 71.8146 40.6773C70.6074 40.6773 69.6288 41.6559 69.6288 42.863C69.6288 44.0702 70.6074 45.0488 71.8146 45.0488C73.0217 45.0488 74.0004 44.0702 74.0004 42.863Z" fill="#C1C1C1"/>
<path d="M74.0004 83.5408C74.0004 82.3336 73.0217 81.355 71.8146 81.355C70.6074 81.355 69.6288 82.3336 69.6288 83.5408C69.6288 84.748 70.6074 85.7266 71.8146 85.7266C73.0217 85.7266 74.0004 84.748 74.0004 83.5408Z" fill="#C1C1C1"/>
<path d="M74.0004 2.18531C74.0004 0.978133 73.0217 -0.00047636 71.8146 -0.00047636C70.6074 -0.00047636 69.6288 0.978133 69.6288 2.18531C69.6288 3.39248 70.6074 4.37109 71.8146 4.37109C73.0217 4.37109 74.0004 3.39248 74.0004 2.18531Z" fill="#C1C1C1"/>
<path d="M91.3716 144.465C91.3716 143.257 90.393 142.279 89.1858 142.279C87.9786 142.279 87 143.257 87 144.465C87 145.672 87.9786 146.65 89.1858 146.65C90.393 146.65 91.3716 145.672 91.3716 144.465Z" fill="#C1C1C1"/>
<path d="M91.3716 63.1101C91.3716 61.9029 90.393 60.9243 89.1858 60.9243C87.9786 60.9243 87 61.9029 87 63.1101C87 64.3173 87.9786 65.2959 89.1858 65.2959C90.393 65.2959 91.3716 64.3173 91.3716 63.1101Z" fill="#C1C1C1"/>
<path d="M91.3716 103.787C91.3716 102.58 90.393 101.601 89.1858 101.601C87.9786 101.601 87 102.58 87 103.787C87 104.994 87.9786 105.973 89.1858 105.973C90.393 105.973 91.3716 104.994 91.3716 103.787Z" fill="#C1C1C1"/>
<path d="M91.3716 24.4822C91.3716 23.275 90.393 22.2964 89.1858 22.2964C87.9786 22.2964 87 23.275 87 24.4822C87 25.6894 87.9786 26.668 89.1858 26.668C90.393 26.668 91.3716 25.6894 91.3716 24.4822Z" fill="#C1C1C1"/>
<path d="M91.3716 122.168C91.3716 120.961 90.393 119.982 89.1858 119.982C87.9786 119.982 87 120.961 87 122.168C87 123.375 87.9786 124.354 89.1858 124.354C90.393 124.354 91.3716 123.375 91.3716 122.168Z" fill="#C1C1C1"/>
<path d="M91.3716 42.863C91.3716 41.6559 90.393 40.6773 89.1858 40.6773C87.9786 40.6773 87 41.6559 87 42.863C87 44.0702 87.9786 45.0488 89.1858 45.0488C90.393 45.0488 91.3716 44.0702 91.3716 42.863Z" fill="#C1C1C1"/>
<path d="M91.3716 83.5408C91.3716 82.3336 90.393 81.355 89.1858 81.355C87.9786 81.355 87 82.3336 87 83.5408C87 84.748 87.9786 85.7266 89.1858 85.7266C90.393 85.7266 91.3716 84.748 91.3716 83.5408Z" fill="#C1C1C1"/>
<path d="M91.3716 2.18531C91.3716 0.978133 90.393 -0.00047636 89.1858 -0.00047636C87.9786 -0.00047636 87 0.978133 87 2.18531C87 3.39248 87.9786 4.37109 89.1858 4.37109C90.393 4.37109 91.3716 3.39248 91.3716 2.18531Z" fill="#C1C1C1"/>
<path d="M108.777 144.465C108.777 143.257 107.798 142.279 106.591 142.279C105.384 142.279 104.405 143.257 104.405 144.465C104.405 145.672 105.384 146.65 106.591 146.65C107.798 146.65 108.777 145.672 108.777 144.465Z" fill="#C1C1C1"/>
<path d="M108.777 63.1101C108.777 61.9029 107.798 60.9243 106.591 60.9243C105.384 60.9243 104.405 61.9029 104.405 63.1101C104.405 64.3173 105.384 65.2959 106.591 65.2959C107.798 65.2959 108.777 64.3173 108.777 63.1101Z" fill="#C1C1C1"/>
<path d="M108.777 103.787C108.777 102.58 107.798 101.601 106.591 101.601C105.384 101.601 104.405 102.58 104.405 103.787C104.405 104.994 105.384 105.973 106.591 105.973C107.798 105.973 108.777 104.994 108.777 103.787Z" fill="#C1C1C1"/>
<path d="M108.777 24.4822C108.777 23.275 107.798 22.2964 106.591 22.2964C105.384 22.2964 104.405 23.275 104.405 24.4822C104.405 25.6894 105.384 26.668 106.591 26.668C107.798 26.668 108.777 25.6894 108.777 24.4822Z" fill="#C1C1C1"/>
<path d="M108.777 122.168C108.777 120.961 107.798 119.982 106.591 119.982C105.384 119.982 104.405 120.961 104.405 122.168C104.405 123.375 105.384 124.354 106.591 124.354C107.798 124.354 108.777 123.375 108.777 122.168Z" fill="#C1C1C1"/>
<path d="M108.777 42.863C108.777 41.6559 107.798 40.6773 106.591 40.6773C105.384 40.6773 104.405 41.6559 104.405 42.863C104.405 44.0702 105.384 45.0488 106.591 45.0488C107.798 45.0488 108.777 44.0702 108.777 42.863Z" fill="#C1C1C1"/>
<path d="M108.777 83.5408C108.777 82.3336 107.798 81.355 106.591 81.355C105.384 81.355 104.405 82.3336 104.405 83.5408C104.405 84.748 105.384 85.7266 106.591 85.7266C107.798 85.7266 108.777 84.748 108.777 83.5408Z" fill="#C1C1C1"/>
<path d="M108.777 2.18531C108.777 0.978133 107.798 -0.00047636 106.591 -0.00047636C105.384 -0.00047636 104.405 0.978133 104.405 2.18531C104.405 3.39248 105.384 4.37109 106.591 4.37109C107.798 4.37109 108.777 3.39248 108.777 2.18531Z" fill="#C1C1C1"/>
<path d="M126.187 144.465C126.187 143.257 125.208 142.279 124.001 142.279C122.794 142.279 121.815 143.257 121.815 144.465C121.815 145.672 122.794 146.65 124.001 146.65C125.208 146.65 126.187 145.672 126.187 144.465Z" fill="#C1C1C1"/>
<path d="M126.187 63.1101C126.187 61.9029 125.208 60.9243 124.001 60.9243C122.794 60.9243 121.815 61.9029 121.815 63.1101C121.815 64.3173 122.794 65.2959 124.001 65.2959C125.208 65.2959 126.187 64.3173 126.187 63.1101Z" fill="#C1C1C1"/>
<path d="M126.187 103.787C126.187 102.58 125.208 101.601 124.001 101.601C122.794 101.601 121.815 102.58 121.815 103.787C121.815 104.994 122.794 105.973 124.001 105.973C125.208 105.973 126.187 104.994 126.187 103.787Z" fill="#C1C1C1"/>
<path d="M126.187 24.4822C126.187 23.275 125.208 22.2964 124.001 22.2964C122.794 22.2964 121.815 23.275 121.815 24.4822C121.815 25.6894 122.794 26.668 124.001 26.668C125.208 26.668 126.187 25.6894 126.187 24.4822Z" fill="#C1C1C1"/>
<path d="M126.187 122.168C126.187 120.961 125.208 119.982 124.001 119.982C122.794 119.982 121.815 120.961 121.815 122.168C121.815 123.375 122.794 124.354 124.001 124.354C125.208 124.354 126.187 123.375 126.187 122.168Z" fill="#C1C1C1"/>
<path d="M126.187 42.863C126.187 41.6559 125.208 40.6773 124.001 40.6773C122.794 40.6773 121.815 41.6559 121.815 42.863C121.815 44.0702 122.794 45.0488 124.001 45.0488C125.208 45.0488 126.187 44.0702 126.187 42.863Z" fill="#C1C1C1"/>
<path d="M126.187 83.5408C126.187 82.3336 125.208 81.355 124.001 81.355C122.794 81.355 121.815 82.3336 121.815 83.5408C121.815 84.748 122.794 85.7266 124.001 85.7266C125.208 85.7266 126.187 84.748 126.187 83.5408Z" fill="#C1C1C1"/>
<path d="M126.187 2.18531C126.187 0.978133 125.208 -0.00047636 124.001 -0.00047636C122.794 -0.00047636 121.815 0.978133 121.815 2.18531C121.815 3.39248 122.794 4.37109 124.001 4.37109C125.208 4.37109 126.187 3.39248 126.187 2.18531Z" fill="#C1C1C1"/>
<path d="M143.592 144.465C143.592 143.257 142.613 142.279 141.406 142.279C140.199 142.279 139.22 143.257 139.22 144.465C139.22 145.672 140.199 146.65 141.406 146.65C142.613 146.65 143.592 145.672 143.592 144.465Z" fill="#C1C1C1"/>
<path d="M143.592 63.1101C143.592 61.9029 142.613 60.9243 141.406 60.9243C140.199 60.9243 139.22 61.9029 139.22 63.1101C139.22 64.3173 140.199 65.2959 141.406 65.2959C142.613 65.2959 143.592 64.3173 143.592 63.1101Z" fill="#C1C1C1"/>
<path d="M143.592 103.787C143.592 102.58 142.613 101.601 141.406 101.601C140.199 101.601 139.22 102.58 139.22 103.787C139.22 104.994 140.199 105.973 141.406 105.973C142.613 105.973 143.592 104.994 143.592 103.787Z" fill="#C1C1C1"/>
<path d="M143.592 24.4822C143.592 23.275 142.613 22.2964 141.406 22.2964C140.199 22.2964 139.22 23.275 139.22 24.4822C139.22 25.6894 140.199 26.668 141.406 26.668C142.613 26.668 143.592 25.6894 143.592 24.4822Z" fill="#C1C1C1"/>
<path d="M143.592 122.168C143.592 120.961 142.613 119.982 141.406 119.982C140.199 119.982 139.22 120.961 139.22 122.168C139.22 123.375 140.199 124.354 141.406 124.354C142.613 124.354 143.592 123.375 143.592 122.168Z" fill="#C1C1C1"/>
<path d="M143.592 42.863C143.592 41.6559 142.613 40.6773 141.406 40.6773C140.199 40.6773 139.22 41.6559 139.22 42.863C139.22 44.0702 140.199 45.0488 141.406 45.0488C142.613 45.0488 143.592 44.0702 143.592 42.863Z" fill="#C1C1C1"/>
<path d="M143.592 83.5408C143.592 82.3336 142.613 81.355 141.406 81.355C140.199 81.355 139.22 82.3336 139.22 83.5408C139.22 84.748 140.199 85.7266 141.406 85.7266C142.613 85.7266 143.592 84.748 143.592 83.5408Z" fill="#C1C1C1"/>
<path d="M143.592 2.18531C143.592 0.978133 142.613 -0.00047636 141.406 -0.00047636C140.199 -0.00047636 139.22 0.978133 139.22 2.18531C139.22 3.39248 140.199 4.37109 141.406 4.37109C142.613 4.37109 143.592 3.39248 143.592 2.18531Z" fill="#C1C1C1"/>
<path d="M161 144.465C161 143.257 160.022 142.279 158.815 142.279C157.607 142.279 156.629 143.257 156.629 144.465C156.629 145.672 157.607 146.65 158.815 146.65C160.022 146.65 161 145.672 161 144.465Z" fill="#C1C1C1"/>
<path d="M161 63.1101C161 61.9029 160.022 60.9243 158.815 60.9243C157.607 60.9243 156.629 61.9029 156.629 63.1101C156.629 64.3173 157.607 65.2959 158.815 65.2959C160.022 65.2959 161 64.3173 161 63.1101Z" fill="#C1C1C1"/>
<path d="M161 103.787C161 102.58 160.022 101.601 158.815 101.601C157.607 101.601 156.629 102.58 156.629 103.787C156.629 104.994 157.607 105.973 158.815 105.973C160.022 105.973 161 104.994 161 103.787Z" fill="#C1C1C1"/>
<path d="M161 24.4822C161 23.275 160.022 22.2964 158.815 22.2964C157.607 22.2964 156.629 23.275 156.629 24.4822C156.629 25.6894 157.607 26.668 158.815 26.668C160.022 26.668 161 25.6894 161 24.4822Z" fill="#C1C1C1"/>
<path d="M161 122.168C161 120.961 160.022 119.982 158.815 119.982C157.607 119.982 156.629 120.961 156.629 122.168C156.629 123.375 157.607 124.354 158.815 124.354C160.022 124.354 161 123.375 161 122.168Z" fill="#C1C1C1"/>
<path d="M161 42.863C161 41.6559 160.022 40.6773 158.815 40.6773C157.607 40.6773 156.629 41.6559 156.629 42.863C156.629 44.0702 157.607 45.0488 158.815 45.0488C160.022 45.0488 161 44.0702 161 42.863Z" fill="#C1C1C1"/>
<path d="M161 83.5408C161 82.3336 160.022 81.355 158.815 81.355C157.607 81.355 156.629 82.3336 156.629 83.5408C156.629 84.748 157.607 85.7266 158.815 85.7266C160.022 85.7266 161 84.748 161 83.5408Z" fill="#C1C1C1"/>
<path d="M161 2.18531C161 0.978133 160.022 -0.00047636 158.815 -0.00047636C157.607 -0.00047636 156.629 0.978133 156.629 2.18531C156.629 3.39248 157.607 4.37109 158.815 4.37109C160.022 4.37109 161 3.39248 161 2.18531Z" fill="#C1C1C1"/>
</svg>
