<svg width="49" height="37" viewBox="0 0 49 37" fill="none" xmlns="http://www.w3.org/2000/svg">
<path d="M47.6281 8.26782H45.5347V6.8403C45.5347 6.61041 45.4244 6.39489 45.2376 6.26556C42.2484 4.16244 38.5406 3.36751 34.5167 3.971C31.2594 4.45952 27.8678 5.82485 24.658 7.93259C23.2305 5.05823 20.8544 2.66307 18.0282 1.29312C14.7566 -0.297433 11.1686 -0.426686 7.93519 0.938598C7.67657 1.04887 7.50414 1.30282 7.50414 1.58517V4.34457C6.072 4.76125 4.72575 5.40819 3.49943 6.27028C3.31264 6.40427 3.20237 6.61511 3.20237 6.84501V8.27253H1.11396C0.726013 8.27253 0.409912 8.58863 0.409912 8.97658V36.296C0.409912 36.6839 0.726013 37 1.11396 37H24.3658H24.3705H47.6224C48.0103 37 48.3264 36.6839 48.3264 36.296V8.9723C48.3315 8.58435 48.015 8.26825 47.6271 8.26825L47.6281 8.26782ZM44.1313 7.21394V8.9672V8.97188V8.97656V32.9239C38.7421 30.0305 32.0597 30.7587 25.0752 35.0126V9.34079C31.9877 4.65107 39.0578 3.8608 44.1313 7.21394ZM8.91299 2.05939C15.1354 -0.263917 21.3396 3.82702 23.6672 9.12024V34.2694C22.0673 32.3006 20.4577 30.6048 18.4602 29.4313C16.5586 28.3152 14.4795 27.7643 12.0937 27.7643C11.0926 27.7643 10.034 27.8602 8.9129 28.0516L8.91299 2.05939ZM4.6112 7.21394C5.51169 6.61983 6.48413 6.15032 7.50925 5.81517V28.8994C7.50925 29.1102 7.60515 29.3114 7.76788 29.4454C7.93061 29.5794 8.14647 29.6322 8.35698 29.5891C15.0059 28.2047 18.5125 30.5137 21.4106 33.7566C15.255 30.6476 9.42026 30.3459 4.6154 32.9279V7.21326L4.6112 7.21394ZM1.81844 9.67591H3.20746L3.20779 34.1596C3.20779 34.4182 3.3468 34.6531 3.57669 34.7774C3.80191 34.9021 4.07958 34.8877 4.2951 34.7487C9.11417 31.611 15.2889 31.9225 21.861 35.5871H1.81868L1.81844 9.67591ZM46.9244 35.5873H26.8821C33.4544 31.9227 39.6295 31.6066 44.448 34.7489C44.6635 34.8879 44.9416 34.9023 45.1664 34.7776C45.3916 34.653 45.5353 34.4184 45.5353 34.1598V9.67612H46.9244L46.9244 35.5873Z" fill="white"/>
</svg>
